<?xml version="1.0" encoding="UTF-8"?>
<svg version="1.1" xmlns="http://www.w3.org/2000/svg" width="1080" height="1080">
<path d="M0 0 C3.82106941 0.00329203 7.64211746 -0.00503686 11.46317985 -0.01181835 C18.14952887 -0.0220878 24.83584896 -0.02496748 31.52220508 -0.02290613 C41.46573592 -0.01984816 51.40923489 -0.02819775 61.35275951 -0.03865538 C80.14902812 -0.05797185 98.9452858 -0.06362273 117.74156316 -0.06476949 C132.26140668 -0.06568955 146.78124593 -0.06981126 161.30108806 -0.07617074 C165.48479293 -0.07796591 169.6684978 -0.07974554 173.85220268 -0.0815205 C175.41245441 -0.08218364 175.41245441 -0.08218364 177.00422638 -0.08286019 C206.25283712 -0.09516445 235.50144637 -0.10306174 264.75005981 -0.10217363 C266.4033358 -0.10212689 266.4033358 -0.10212689 268.0900113 -0.10207921 C273.67597666 -0.101913 279.26194202 -0.10171492 284.84790738 -0.1015098 C285.95724242 -0.10146991 287.06657746 -0.10143002 288.20952871 -0.10138892 C290.45287423 -0.10130804 292.69621975 -0.10122445 294.93956527 -0.10113813 C329.83094767 -0.09991303 364.72229118 -0.11492012 399.61366245 -0.14228326 C438.84097706 -0.17303435 478.06826611 -0.19021392 517.29559353 -0.18835682 C521.48212759 -0.18820756 525.66866166 -0.18811015 529.85519573 -0.18804819 C531.40136708 -0.18801322 531.40136708 -0.18801322 532.97877422 -0.18797755 C549.53448252 -0.18791612 566.09015694 -0.20066344 582.64585519 -0.21791271 C599.29857913 -0.23490365 615.95125374 -0.23681602 632.60398157 -0.22369407 C642.48378869 -0.21632785 652.36344549 -0.21989292 662.24323654 -0.23957875 C668.85894048 -0.25164145 675.47453639 -0.24891839 682.09023552 -0.23463776 C685.8489569 -0.22692737 689.60738896 -0.22516816 693.36608913 -0.24155246 C745.62035531 -0.45414103 791.70484226 15.25950844 830.18031284 51.26933783 C831.11746128 52.14074408 832.05460971 53.01215033 833.02015659 53.90996283 C859.83772071 79.43040442 877.5747462 115.00461069 884.18031284 151.26933783 C884.34935806 152.14999138 884.51840327 153.03064492 884.69257107 153.93798494 C886.85083437 167.23970149 886.46601814 180.67798586 886.44344931 194.11383044 C886.43924881 197.93845265 886.44669793 201.76305613 886.45260182 205.58767366 C886.46133669 212.28014558 886.46268561 218.97258689 886.45909854 225.66506308 C886.45377835 235.61748055 886.45990009 245.56986853 886.46818148 255.52228279 C886.48340498 274.33406973 886.48512823 293.14584319 886.48265845 311.95763501 C886.48082424 326.48704737 886.48258809 341.01645533 886.48688289 355.54586714 C886.4874853 357.63492108 886.4880865 359.72397502 886.4886865 361.81302896 C886.48959377 364.96122578 886.49050244 368.1094226 886.49141885 371.25761941 C886.49984599 400.52052431 886.50418574 429.78342755 886.50001213 459.04633349 C886.49985575 460.14901836 886.49969937 461.25170322 886.49953826 462.38780278 C886.4987325 467.97636 886.49788673 473.5649172 886.49702496 479.15347441 C886.49685387 480.26333424 886.49668278 481.37319406 886.49650651 482.516686 C886.49615985 484.76109127 886.49581132 487.00549653 886.49546092 489.24990179 C886.49010446 524.16809293 886.49803301 559.08625882 886.51649448 594.00444525 C886.53722317 633.25662429 886.54793551 672.50878768 886.54391899 711.7609725 C886.54352366 715.94855823 886.54316211 720.13614396 886.54282161 724.32372969 C886.54268552 725.87030558 886.54268552 725.87030558 886.54254667 727.44812543 C886.54138203 742.99431199 886.54801886 758.54048272 886.55863353 774.08666533 C886.57069764 791.773459 886.57223056 809.46021787 886.55984337 827.14701208 C886.55322657 837.03652195 886.55481855 846.92594854 886.56843188 856.81545171 C886.57670306 863.43251943 886.57394432 870.04952505 886.56245661 876.66658776 C886.55622653 880.42933133 886.55453045 884.19191292 886.56631995 887.95464685 C886.6234805 907.51273487 885.8906786 926.40060313 880.49281284 945.33183783 C880.23862583 946.23829047 879.98443882 947.1447431 879.72254917 948.078664 C865.8072763 995.84707602 832.65616114 1035.213414 789.39588901 1059.10039252 C776.39166192 1066.10256702 762.9144619 1071.13527021 748.68031284 1075.01933783 C748.00677768 1075.20601019 747.33324253 1075.39268256 746.63929721 1075.58501166 C744.16497172 1076.22101384 741.68161439 1076.74761886 739.18031284 1077.26933783 C737.39643863 1077.64257267 737.39643863 1077.64257267 735.57652655 1078.02334761 C721.06194858 1080.79337081 706.55700171 1080.69996505 691.8366217 1080.66094186 C688.00964275 1080.65416091 684.18270307 1080.6649334 680.35573283 1080.6733377 C673.66520874 1080.68564878 666.97475484 1080.68694123 660.28422329 1080.68078726 C650.33455813 1080.67166022 640.38495737 1080.67975703 630.43529713 1080.6910785 C612.65914473 1080.71070782 594.88302155 1080.71309996 577.10686089 1080.7078833 C561.54718551 1080.70331959 545.98752166 1080.70393345 530.42784664 1080.70972365 C528.33770329 1080.71048053 526.24755995 1080.71123651 524.15741661 1080.7119916 C521.00743621 1080.71313684 517.85745582 1080.71428672 514.70747544 1080.71545084 C485.43527904 1080.72615031 456.16308647 1080.73088683 426.8908889 1080.72298068 C425.78828611 1080.7226835 424.68568332 1080.72238633 423.54966833 1080.72208015 C414.59676405 1080.71963142 405.64385982 1080.71701973 396.6909556 1080.71439602 C361.77877971 1080.70429609 326.86665194 1080.71264642 291.95448276 1080.73589057 C252.69344311 1080.7619881 213.43243241 1080.77480436 174.17138377 1080.76770282 C169.9815418 1080.7669868 165.79169984 1080.76631241 161.60185787 1080.76566237 C160.05449079 1080.76540766 160.05449079 1080.76540766 158.47586377 1080.7651478 C142.93351166 1080.76284902 127.39118651 1080.77080168 111.84884044 1080.78395384 C94.16334603 1080.79889326 76.47791463 1080.79967065 58.79242152 1080.78188293 C48.90815344 1080.77234959 39.02403252 1080.77369384 29.13977439 1080.79111762 C22.52123355 1080.80166283 15.90280396 1080.79742907 9.28427394 1080.78163759 C5.5240073 1080.77306577 1.76402739 1080.77043128 -1.99622374 1080.7859069 C-51.06396642 1080.97362187 -98.21397411 1067.29082236 -134.30406216 1032.64433783 C-136.77594536 1030.24403205 -136.77594536 1030.24403205 -139.44859341 1028.17558783 C-143.05972063 1025.27240812 -145.83724116 1021.79827491 -148.81968716 1018.26933783 C-149.57378872 1017.41468939 -150.32789029 1016.56004096 -151.10484341 1015.67949408 C-162.19770292 1002.86381328 -170.71854746 988.62109669 -177.81968716 973.26933783 C-178.35206997 972.14398627 -178.88445279 971.01863471 -179.43296841 969.85918158 C-191.54298489 943.104494 -194.44633471 915.39098494 -194.33355738 886.31431573 C-194.32325068 882.48636701 -194.33651229 878.65847906 -194.34653071 874.8305394 C-194.36086832 868.1460586 -194.36060723 861.4617074 -194.35034207 854.7772209 C-194.33511862 844.83663937 -194.34299523 834.89616577 -194.3551753 824.95558481 C-194.37616982 807.19462269 -194.37444009 789.43371835 -194.36285965 771.67275081 C-194.35277551 756.12932284 -194.3501808 740.58591599 -194.35495022 725.04248541 C-194.35525576 724.00924442 -194.3555613 722.97600343 -194.3558761 721.9114521 C-194.35712157 717.71660988 -194.35839518 713.52176767 -194.35971516 709.32692548 C-194.37193603 670.0202927 -194.36088135 630.7136966 -194.33932757 591.40706948 C-194.32034683 556.52764319 -194.32204541 521.64827533 -194.34117154 486.76884955 C-194.36261565 447.53157628 -194.37106914 408.29433539 -194.35872248 369.05705708 C-194.35743972 364.87010148 -194.35618835 360.68314587 -194.35495022 356.49619025 C-194.35463391 355.4653447 -194.3543176 354.43449915 -194.35399171 353.37241586 C-194.34945237 337.84328136 -194.35474319 322.31417036 -194.36486844 306.78503913 C-194.37633062 289.11796134 -194.3733927 271.45095008 -194.35174546 253.78388053 C-194.34004522 243.91069875 -194.33916822 234.03766123 -194.35433016 224.16448335 C-194.36335807 217.55350443 -194.35761318 210.94264016 -194.34031108 204.3316781 C-194.33087809 200.57582302 -194.32736752 196.82025257 -194.34193501 193.06440735 C-194.53744933 138.55966345 -176.98463165 90.89232306 -138.69468716 51.76933783 C-112.93095449 26.06172811 -78.56641893 8.77987828 -42.81968716 2.26933783 C-41.93872134 2.10037068 -41.05775552 1.93140353 -40.15009377 1.75731617 C-26.85662381 -0.39836317 -13.42750498 -0.01935842 0 0 Z " fill="#000000" transform="translate(193.8196871606633,-0.2693378310650587)"/>
<path d="M0 0 C50.015625 -0.061875 100.03125 -0.12375 151.5625 -0.1875 C167.30783447 -0.21481201 183.05316895 -0.24212402 199.27563477 -0.27026367 C218.6229248 -0.28381348 218.6229248 -0.28381348 227.70347595 -0.28633118 C233.99464858 -0.28910644 240.28573946 -0.30001475 246.57688904 -0.31672668 C253.86112465 -0.33604749 261.14528306 -0.34445639 268.42954439 -0.34033485 C272.14260592 -0.33855497 275.85549577 -0.34103953 279.56852448 -0.35764539 C306.92085302 -0.47373697 333.61147639 1.36456037 360.35498047 7.41210938 C362.70133322 7.93361735 365.04960125 8.40766722 367.41015625 8.859375 C396.975609 14.75830246 426.80724736 29.31807291 448.81640625 49.9921875 C451.01461633 52.06293915 451.01461633 52.06293915 453.5703125 54.03515625 C475.20391108 71.52985092 487.36712466 102.73668527 490.65234375 129.54296875 C491.93348422 143.65517331 491.68847316 158.0811959 489 172 C488.81695313 173.15757812 488.63390625 174.31515625 488.4453125 175.5078125 C482.74227213 208.66993615 463.20556253 239.91396029 435.8125 259.5 C429.76201406 263.69486639 423.44099999 267.43739561 417 271 C417.59941406 271.23332031 418.19882812 271.46664063 418.81640625 271.70703125 C460.3245413 288.41656499 492.17367872 312.68305127 510.18359375 354.765625 C517.28900256 373.23415842 519.15971314 391.99376469 519.25 411.625 C519.2593457 412.91092041 519.26869141 414.19684082 519.27832031 415.52172852 C519.16625552 449.32866064 507.97335968 481.08317669 485 506 C484.14792969 506.93457031 483.29585937 507.86914062 482.41796875 508.83203125 C454.6351176 537.9477928 414.06051748 552.65624545 375.24812031 559.40550709 C371.83511518 560.03017833 368.44809488 560.74596384 365.05326843 561.46257019 C357.46450941 562.99964373 349.88195078 564.02366644 342.16333008 564.66918945 C341.03918778 564.7637338 341.03918778 564.7637338 339.89233553 564.86018813 C311.35959062 567.13879378 282.56141645 566.38308535 253.95985121 566.31019343 C245.11893592 566.28817651 236.27808218 566.28616614 227.43713379 566.28381348 C204.18723895 566.26817558 180.93736773 566.22629193 157.6875 566.1875 C105.650625 566.125625 53.61375 566.06375 0 566 C0 379.22 0 192.44 0 0 Z " fill="#FEFEFE" transform="translate(298,258)"/>
<path d="M0 0 C42.19727683 -0.08060607 42.19727683 -0.08060607 59.95507812 -0.09765625 C72.18955167 -0.10949793 84.42399756 -0.12337698 96.65844727 -0.15087891 C105.57091849 -0.17090367 114.48336716 -0.18373786 123.39586025 -0.18817699 C128.10863068 -0.19076908 132.82133661 -0.19679903 137.53408623 -0.21146011 C141.98358867 -0.22518812 146.43300097 -0.22919241 150.88252258 -0.22621536 C152.50245722 -0.2267588 154.12239536 -0.23064456 155.74231148 -0.23841095 C170.17420505 -0.30411933 184.43716909 0.72968459 198.5 4.1875 C199.37382324 4.40108154 200.24764648 4.61466309 201.14794922 4.8347168 C220.33983583 9.75209301 238.28526823 18.58245036 249.3125 35.8125 C258.53580067 52.23509926 259.72830627 73.65712474 255.10546875 91.7578125 C249.3665674 108.58921929 239.50333159 119.94484403 223.53808594 127.84643555 C210.15671277 134.16655577 196.59646447 137.10765437 182 139 C181.32378916 139.09063437 180.64757832 139.18126875 179.95087624 139.27464962 C171.67506078 140.24632835 163.39333109 140.13301836 155.07568359 140.11352539 C153.37964886 140.11324289 151.68361401 140.11340247 149.98757935 140.1139679 C145.40979427 140.11425343 140.83203568 140.10839626 136.25425673 140.10139394 C131.46032822 140.09511966 126.66639902 140.09455339 121.87246704 140.09336853 C112.80630662 140.09026719 103.74015833 140.08207001 94.67400324 140.07201904 C82.41454265 140.05872449 70.15507871 140.05334832 57.89561272 140.04751682 C38.59706606 140.03812927 19.29854501 140.01820236 0 140 C0 93.8 0 47.6 0 0 Z " fill="#000000" transform="translate(428,585)"/>
<path d="M0 0 C36.05778128 -0.1209091 36.05778128 -0.1209091 51.27734375 -0.14648438 C61.74695289 -0.16422004 72.2164891 -0.18496167 82.68603516 -0.22631836 C90.31415263 -0.25643622 97.9422104 -0.27562549 105.57038569 -0.28226548 C109.60086517 -0.28614028 113.63117401 -0.29509661 117.66159821 -0.31719017 C134.32525702 -0.40500695 150.58871547 -0.3091545 167 3 C168.61066093 3.30522079 168.61066093 3.30522079 170.25386047 3.61660767 C189.66002199 7.39360071 207.98109424 15.7212289 220 32 C229.46781451 47.46552507 231.41879442 65.20905253 227.9375 82.875 C223.21694723 100.03663578 213.46678655 111.8858941 198.15234375 120.625 C181.30130767 129.50565143 159.61221175 134.13653739 140.57752991 134.12025452 C138.70777496 134.12231651 138.70777496 134.12231651 136.80024719 134.12442017 C135.4372251 134.12088199 134.07420325 134.1172472 132.71118164 134.11352539 C131.2618917 134.11324302 129.81260162 134.11340222 128.36331177 134.1139679 C124.44441714 134.11425393 120.52555334 134.1083885 116.60666585 134.10139394 C112.50539257 134.09512816 108.40411852 134.09455405 104.30284119 134.09336853 C96.54342908 134.09026471 88.78403113 134.08206413 81.02462524 134.07201904 C70.5344329 134.05873453 60.04423668 134.05335033 49.55403805 134.04751682 C33.03601478 134.03812359 16.51802135 134.01819833 0 134 C0 89.78 0 45.56 0 0 Z " fill="#000000" transform="translate(428,356)"/>
</svg>
